# Blender 3.6.2
# www.blender.org
mtllib Tortura.mtl
o Cube
v 12.413339 7.015141 -8.479659
v -0.098447 -4.562297 -16.461330
v 13.276949 -4.280996 6.551655
v 0.765163 -15.858435 -1.430018
v -1.622272 16.640585 -0.439668
v -14.134058 5.063147 -8.421341
v -0.758662 5.344448 14.591645
v -13.270448 -6.232991 6.609973
v -1.054463 7.942547 -33.101021
v -15.090075 17.567991 -25.061033
v 11.457322 19.519985 -25.119350
v -2.578289 29.145430 -17.079359
v 29.786032 10.995229 17.083330
v 15.750420 20.620674 25.123323
v 28.922421 22.291367 2.052017
v 14.886810 31.916811 10.092009
v 30.069643 -5.093327 -18.593683
v 17.557858 -16.670765 -26.575356
v 30.933252 -16.389463 -3.562370
v 18.421467 -27.966904 -11.544043
v 3.960246 21.806213 3.121600
v 17.995857 12.180771 -4.918390
v 3.004229 34.311058 -13.518091
v 17.039841 24.685616 -21.558083
v 18.728268 2.684444 -12.097027
v 19.591877 -8.611694 2.934287
v 35.237350 17.960669 -1.565351
v 36.100960 6.664532 13.465963
v 12.029015 12.042152 -15.168900
v -0.482771 0.464714 -23.150574
v 29.685318 -0.066316 -25.282925
v 17.173532 -11.643755 -33.264595
vn -0.7457 0.5114 0.4271
vn 0.0459 -0.6001 0.7986
vn -0.6647 -0.6151 -0.4240
vn 0.7457 -0.5114 -0.4271
vn -0.0459 0.6001 -0.7986
vn 0.6647 0.6151 0.4240
vt 0.625000 0.250000
vt 0.625000 0.000000
vt 0.375000 0.750000
vt 0.625000 0.750000
vt 0.625000 1.000000
vt 0.375000 1.000000
vt 0.375000 0.000000
vt 0.375000 0.250000
vt 0.125000 0.500000
vt 0.375000 0.500000
vt 0.125000 0.750000
vt 0.625000 0.500000
vt 0.875000 0.500000
vt 0.875000 0.750000
s 0
usemtl Material
f 5/1/1 7/2/1 14/2/1 16/1/1
f 4/3/2 3/4/2 7/5/2 8/6/2
f 8/7/1 7/2/1 5/1/1 6/8/1
f 6/9/3 2/10/3 4/3/3 8/11/3
f 2/10/1 1/12/1 29/12/1 30/10/1
f 1/12/4 2/10/4 9/10/4 11/12/4
f 10/8/5 12/1/5 11/12/5 9/10/5
f 6/8/1 5/1/1 12/1/1 10/8/1
f 2/10/3 6/9/3 10/9/3 9/10/3
f 12/1/1 5/1/1 21/1/1 23/1/1
f 15/12/6 16/13/6 14/14/6 13/4/6
f 3/4/3 1/12/3 25/12/3 26/4/3
f 1/12/5 5/13/5 16/13/5 15/12/5
f 7/5/2 3/4/2 13/4/2 14/5/2
f 18/10/4 17/12/4 19/4/4 20/3/4
f 4/3/3 2/10/3 18/10/3 20/3/3
f 1/12/6 3/4/6 19/4/6 17/12/6
f 3/4/2 4/3/2 20/3/2 19/4/2
f 21/13/6 22/12/6 24/12/6 23/13/6
f 5/13/2 1/12/2 22/12/2 21/13/2
f 1/12/4 11/12/4 24/12/4 22/12/4
f 11/12/5 12/1/5 23/1/5 24/12/5
f 26/4/4 25/12/4 27/12/4 28/4/4
f 13/4/2 3/4/2 26/4/2 28/4/2
f 15/12/6 13/4/6 28/4/6 27/12/6
f 1/12/5 15/12/5 27/12/5 25/12/5
f 30/10/5 29/12/5 31/12/5 32/10/5
f 18/10/3 2/10/3 30/10/3 32/10/3
f 1/12/6 17/12/6 31/12/6 29/12/6
f 17/12/4 18/10/4 32/10/4 31/12/4
